<svg xmlns="http://www.w3.org/2000/svg" viewBox="0 0 40 40"><defs><style>.cls-1{fill:#d7422c;}</style></defs><title>资源 2</title><g id="图层_2" data-name="图层 2"><g id="图层_1-2" data-name="图层 1"><path class="cls-1" d="M19.25,16.08c0-2-1.2-5.14-3.52-5.14a2.61,2.61,0,0,0-2,.92,3.21,3.21,0,0,0-.62,2.07c0,1.87,1.09,5,3.5,5a2.91,2.91,0,0,0,1.9-.78,2.84,2.84,0,0,0,.69-2Z"/><path class="cls-1" d="M40,20A20,20,0,1,0,20,40,20,20,0,0,0,40,20ZM26.15,16.15h1.54v3.08h3.08v1.54H27.69v3.08H26.15V20.77H23.08V19.23h3.07V16.15ZM9.23,27.6a4.09,4.09,0,0,1,2.19-3.47,12.29,12.29,0,0,1,5.43-1.31A3,3,0,0,1,16,20.89a2.59,2.59,0,0,1,.28-1.11c-.31,0-.63.06-.91.06a4.5,4.5,0,0,1-4.72-4.47,5.13,5.13,0,0,1,1.82-3.81A7.79,7.79,0,0,1,17.56,10h5.86L21.6,11H19.83a4.78,4.78,0,0,1,2,3.84c0,2.1-1.19,3.1-2.38,4a2,2,0,0,0-.8,1.39,1.56,1.56,0,0,0,.74,1.22l1,.8c1.25,1.05,2.39,2,2.39,4,0,2.67-2.59,5.37-7.48,5.37-4.12,0-6.11-2-6.11-4.06Z"/><path class="cls-1" d="M17.47,24a4.72,4.72,0,0,0-.68,0,11.91,11.91,0,0,0-3.09.47,3.32,3.32,0,0,0-2.54,3c0,2.09,2,3.59,5.19,3.59,2.83,0,4.33-1.35,4.33-3.18C20.68,26.35,19.71,25.55,17.47,24Z"/></g></g></svg>