<svg xmlns="http://www.w3.org/2000/svg" viewBox="0 0 40 40"><defs><style>.cls-1{fill:#3296fa;}</style></defs><title>资源 4</title><g id="图层_2" data-name="图层 2"><g id="图层_1-2" data-name="图层 1"><path class="cls-1" d="M20,0A20,20,0,1,0,40,20,20,20,0,0,0,20,0Zm9.25,17.33a4.67,4.67,0,0,1-.28.75l0,0c-.85,1.8-3,5.32-3,5.32l0,0-.65,1.11h3.09l-5.9,7.84L23.78,27H21.35l.85-3.54c-.69.17-1.49.39-2.44.71,0,0-1.3.75-3.72-1.45,0,0-1.64-1.46-.69-1.8a25.85,25.85,0,0,1,3.2-.51c1.65-.22,2.68-.34,2.68-.34s-5.11.08-6.32-.12-2.75-2.23-3.07-4c0,0-.51-1,1.09-.51s8.2,1.8,8.2,1.8S12.53,14.63,12,14a10.26,10.26,0,0,1-1.54-5.27.39.39,0,0,1,.51-.33s6.34,2.91,10.69,4.49S29.76,15.29,29.25,17.33Z"/></g></g></svg>